#!OML:ASF F:\VICON\USERDATA\INSTALL\rory3\rory3.ASF
:FULLY-SPECIFIED
:DEGREES
438
root -2.00293 17.7847 10.3038 -180.407 -0.455445 178.714
lowerback 13.1901 0.397571 1.77865
upperback -0.136479 0.82922 1.8607
thorax -7.56311 0.323013 0.815327
lowerneck -22.608 -2.5605 -11.9736
upperneck 30.806 -2.15845 4.99354
head 14.63 -2.13396 3.57176
rclavicle 4.67144e-015 5.88403e-014
rhumerus -36.4265 -20.7805 -69.161
rradius 31.1122
rwrist 8.36705
rhand -14.4701 6.98284
rfingers 7.12502
rthumb 11.6758 -22.6718
lclavicle 4.67144e-015 5.88403e-014
lhumerus -34.0672 8.70003 81.3647
lradius 33.6867
lwrist -9.35546
lhand -24.5978 16.8282
lfingers 7.12502
lthumb 1.90005 46.7995
rfemur -7.04328 -1.97819 18.9718
rtibia 34.9469
rfoot -19.91 0.689832
rtoes -2.20177
lfemur -8.08381 -4.3912 -17.2307
ltibia 31.9798
lfoot -21.9127 -1.34469
ltoes -13.0453
439
root -2.05901 17.811 10.2993 -180.459 -0.596091 178.571
lowerback 13.216 0.340396 1.57769
upperback -0.0847328 0.720516 1.8705
thorax -7.52459 0.277548 0.960233
lowerneck -22.7918 -2.56471 -11.9485
upperneck 30.8302 -2.15595 5.05269
head 14.6807 -2.1163 3.59504
rclavicle -2.68359e-015 1.74931e-014
rhumerus -36.1528 -21.338 -68.8306
rradius 30.9978
rwrist 8.43268
rhand -14.6162 6.88193
rfingers 7.12502
rthumb 11.5349 -22.7807
lclavicle -2.68359e-015 1.74931e-014
lhumerus -34.1117 8.36757 81.5696
lradius 33.7957
lwrist -10.0496
lhand -24.7093 16.7103
lfingers 7.12502
lthumb 1.79231 46.6826
rfemur -6.6948 -1.9729 18.5997
rtibia 34.4571
rfoot -19.6572 0.637473
rtoes -2.27641
lfemur -8.00475 -4.86491 -16.7673
ltibia 31.8206
lfoot -20.9964 0.375707
ltoes -11.4374
440
root -2.11437 17.8359 10.2954 -180.494 -0.643965 178.482
lowerback 13.2582 0.306067 1.42506
upperback -0.0510075 0.650519 1.87125
thorax -7.51351 0.248895 1.06079
lowerneck -22.8744 -2.55847 -11.903
upperneck 30.8115 -2.16394 5.11473
head 14.6906 -2.10032 3.61255
rclavicle -3.77691e-015 -3.10104e-014
rhumerus -36.0018 -21.8774 -68.5662
rradius 31.1293
rwrist 8.33858
rhand -14.5787 6.63668
rfingers 7.12502
rthumb 11.5711 -23.0239
lclavicle -3.77691e-015 -3.10104e-014
lhumerus -34.1605 7.93761 81.7508
lradius 33.9162
lwrist -10.4685
lhand -24.8321 16.7272
lfingers 7.12502
lthumb 1.67373 46.7004
rfemur -6.42256 -1.86081 18.2961
rtibia 34.0196
rfoot -19.4046 0.624816
rtoes -1.86616
lfemur -7.88764 -5.2408 -16.2182
ltibia 31.588
lfoot -20.2304 2.1013
ltoes -11.6021
441
root -2.17067 17.8567 10.2914 -180.501 -0.684374 178.411
lowerback 13.3421 0.288709 1.3492
upperback -0.105946 0.620207 1.82284
thorax -7.61991 0.237716 1.05829
lowerneck -22.7448 -2.53712 -11.8484
upperneck 30.7256 -2.21218 5.2403
head 14.6279 -2.09331 3.64466
rclavicle 3.57812e-015 3.81667e-014
rhumerus -36.0808 -22.3419 -68.3363
rradius 31.3574
rwrist 7.99773
rhand -14.5366 6.22399
rfingers 7.12502
rthumb 11.6117 -23.4343
lclavicle 3.57812e-015 3.81667e-014
lhumerus -34.3147 7.53656 81.8024
lradius 34.001
lwrist -10.9101
lhand -25.0561 16.5547
lfingers 7.12502
lthumb 1.4574 46.5295
rfemur -6.20231 -1.72682 18.0241
rtibia 33.6165
rfoot -19.0999 0.60523
rtoes -1.48027
lfemur -7.77825 -5.59252 -15.5994
ltibia 31.3067
lfoot -19.6234 3.28702
ltoes -10.381
442
root -2.22764 17.8774 10.287 -180.519 -0.811976 178.253
lowerback 13.3654 0.267451 1.18869
upperback -0.107209 0.566107 1.75547
thorax -7.63475 0.21782 1.08786
lowerneck -22.824 -2.57195 -11.798
upperneck 30.7754 -2.30573 5.32717
head 14.6776 -2.11562 3.65664
rclavicle -4.67144e-015 -2.38542e-015
rhumerus -36.041 -22.8533 -68.1262
rradius 31.4763
rwrist 7.6688
rhand -14.7422 5.80998
rfingers 7.12502
rthumb 11.4134 -23.8594
lclavicle -4.67144e-015 -2.38542e-015
lhumerus -34.437 7.21687 81.8276
lradius 34.1375
lwrist -11.2413
lhand -24.8588 16.1341
lfingers 7.12502
lthumb 1.6479 46.1075
rfemur -5.96178 -1.68 17.6467
rtibia 33.2541
rfoot -18.7005 0.51252
rtoes -1.84835
lfemur -7.66385 -5.96665 -15.0548
ltibia 30.9846
lfoot -19.0775 4.05095
ltoes -8.26428
443
root -2.28715 17.8981 10.2829 -180.55 -0.854374 178.194
lowerback 13.3348 0.245179 1.12857
upperback -0.0288119 0.520241 1.73464
thorax -7.53304 0.196412 1.1083
lowerneck -23.0378 -2.62975 -11.8352
upperneck 30.8036 -2.36405 5.41737
head 14.7458 -2.12561 3.6926
rclavicle 3.97569e-016 2.14687e-014
rhumerus -35.8042 -23.3519 -67.9537
rradius 31.5351
rwrist 7.26721
rhand -14.7788 5.81653
rfingers 7.12502
rthumb 11.3781 -23.8548
lclavicle 3.97569e-016 2.14687e-014
lhumerus -34.4945 6.9407 81.8977
lradius 34.3954
lwrist -11.2605
lhand -24.3811 15.9577
lfingers 7.12502
lthumb 2.10932 45.927
rfemur -5.72897 -1.57025 17.3732
rtibia 32.9167
rfoot -18.4092 0.400496
rtoes -2.86778
lfemur -7.53724 -6.28284 -14.3826
ltibia 30.6337
lfoot -18.5037 4.53181
ltoes -5.29059
444
root -2.35046 17.9124 10.2791 -180.577 -0.790679 178.078
lowerback 13.3037 0.255433 1.0559
upperback 0.0499811 0.513774 1.66255
thorax -7.43068 0.194293 1.07354
lowerneck -23.0842 -2.66945 -11.856
upperneck 30.6849 -2.4295 5.55436
head 14.7117 -2.12325 3.74024
rclavicle -1.2921e-015 -3.18055e-015
rhumerus -35.6403 -23.6929 -67.9104
rradius 31.7583
rwrist 6.58535
rhand -14.726 5.85738
rfingers 7.12502
rthumb 11.429 -23.8111
lclavicle -1.2921e-015 -3.18055e-015
lhumerus -34.5569 6.60044 81.9357
lradius 34.7451
lwrist -11.1498
lhand -24.6494 16.376
lfingers 7.12502
lthumb 1.85021 46.3478
rfemur -5.54677 -1.46378 17.0058
rtibia 32.6065
rfoot -18.2252 0.379194
rtoes -3.75963
lfemur -7.36228 -6.48065 -13.7893
ltibia 30.2264
lfoot -17.8635 5.01083
ltoes -3.52596
445
root -2.41555 17.925 10.2783 -180.595 -0.710744 177.881
lowerback 13.3423 0.298774 0.880034
upperback 0.0845295 0.54016 1.58839
thorax -7.41661 0.21274 1.08885
lowerneck -23.0516 -2.71832 -11.8282
upperneck 30.5003 -2.47679 5.528
head 14.6269 -2.1282 3.71188
rclavicle -9.93923e-017 -2.14687e-014
rhumerus -35.5372 -23.8941 -67.8872
rradius 31.8964
rwrist 5.90703
rhand -15.169 5.993
rfingers 7.12502
rthumb 11.0018 -23.6987
lclavicle -9.93923e-017 -2.14687e-014
lhumerus -34.5764 6.34074 81.9489
lradius 34.9551
lwrist -10.9049
lhand -25.0598 16.6834
lfingers 7.12502
lthumb 1.45377 46.6582
rfemur -5.39213 -1.38546 16.5322
rtibia 32.3238
rfoot -18.0188 0.484854
rtoes -3.78918
lfemur -7.1818 -6.57622 -13.2843
ltibia 29.7595
lfoot -17.0396 5.42437
ltoes -3.16379
446
root -2.47992 17.9429 10.2743 -180.572 -0.648366 177.584
lowerback 13.293 0.362181 0.64654
upperback 0.129657 0.579785 1.43591
thorax -7.34153 0.239482 1.05084
lowerneck -23.0508 -2.80136 -11.8001
upperneck 30.3672 -2.61577 5.61091
head 14.5836 -2.15965 3.71342
rclavicle 1.88845e-015 -3.26007e-014
rhumerus -35.4304 -24.1704 -67.9649
rradius 31.9146
rwrist 5.2184
rhand -15.872 6.57269
rfingers 7.12502
rthumb 10.3236 -23.1539
lclavicle 1.88845e-015 -3.26007e-014
lhumerus -34.4459 6.13843 81.8797
lradius 35.03
lwrist -10.5066
lhand -24.738 16.8954
lfingers 7.12502
lthumb 1.76465 46.8679
rfemur -5.27489 -1.24724 15.9822
rtibia 32.0776
rfoot -17.8358 0.4004
rtoes -4.40642
lfemur -7.04315 -6.6743 -12.8672
ltibia 29.2172
lfoot -16.0816 5.54798
ltoes -2.00498
